# xmcd CD database file
#
# Track frame offsets:
#	150
#	14848
#	26672
#	41946
#	68033
#	81572
#
# Disc length: 1398 seconds
#
# Revision: 0
# Processed by: cddbd v1.5.2PL0 Copyright (c) Steve Scherf et al.
# Submitted via: CDex 1.70beta2
#
DISCID=53057406
DTITLE=Divers - Jazzmag n°639 - 07-2012 (1953 Little Big Band)
DYEAR=2012
DGENRE=Jazz
TTITLE0=Shorty Rogers and his Giants - Pirouette
TTITLE1=Gerry Mulligan tentet - Westwood Walk
TTITLE2=Miles Davis All Stars - Tasty Pudding
TTITLE3=Art farmer septet - Work of Art
TTITLE4=Chet Baker Ensemble - Bockhanal
TTITLE5=Clifford Brown - Philly JJ
EXTD=YEAR: 2012
EXTT0=
EXTT1=
EXTT2=
EXTT3=
EXTT4=
EXTT5=
PLAYORDER=
